<svg width="44" height="44" viewBox="0 0 44 44" fill="none" xmlns="http://www.w3.org/2000/svg">
<path d="M5.5 5.5V38.5H38.5" stroke="#0496FF" stroke-width="2" stroke-linecap="round" stroke-linejoin="round"/>
<path d="M18.3333 18.3333H14.6667C13.6542 18.3333 12.8333 19.1541 12.8333 20.1666V29.3333C12.8333 30.3458 13.6542 31.1666 14.6667 31.1666H18.3333C19.3459 31.1666 20.1667 30.3458 20.1667 29.3333V20.1666C20.1667 19.1541 19.3459 18.3333 18.3333 18.3333Z" stroke="#0496FF" stroke-width="2" stroke-linecap="round" stroke-linejoin="round"/>
<path d="M33 9.16669H29.3333C28.3208 9.16669 27.5 9.9875 27.5 11V29.3334C27.5 30.3459 28.3208 31.1667 29.3333 31.1667H33C34.0125 31.1667 34.8333 30.3459 34.8333 29.3334V11C34.8333 9.9875 34.0125 9.16669 33 9.16669Z" stroke="#0496FF" stroke-width="2" stroke-linecap="round" stroke-linejoin="round"/>
</svg>
