<svg width="44" height="44" viewBox="0 0 44 44" fill="none" xmlns="http://www.w3.org/2000/svg">
<path d="M3.66667 40.3333C5.95833 38.5238 7.82833 36.7125 10.8167 36.3C13.4037 36.2994 15.8942 37.2825 17.7833 39.05C18.7637 39.7367 19.8973 40.1731 21.0851 40.3209C22.2729 40.4688 23.4788 40.3236 24.5976 39.8981C25.7164 39.4726 26.714 38.7797 27.5034 37.8799C28.2928 36.9802 28.8499 35.9008 29.1262 34.7362C30.3157 34.9482 31.5408 34.8201 32.6608 34.3666C33.7807 33.9131 34.7498 33.1527 35.4566 32.1727C36.1634 31.1928 36.5791 30.0332 36.656 28.8274C36.7329 27.6216 36.4678 26.4186 35.8912 25.3568C36.9421 25.0173 37.8877 24.4122 38.6363 23.6002C39.3849 22.7882 39.9112 21.7966 40.1644 20.7216C40.4175 19.6465 40.3889 18.5243 40.0812 17.4636C39.7736 16.4028 39.1974 15.4395 38.4083 14.6667C39.0042 14.0708 39.4769 13.3634 39.7994 12.5848C40.1218 11.8063 40.2878 10.9718 40.2878 10.1292C40.2878 9.28647 40.1218 8.45203 39.7994 7.67348C39.4769 6.89494 39.0042 6.18753 38.4083 5.59166C37.8125 4.99579 37.1051 4.52311 36.3265 4.20063C35.548 3.87814 34.7135 3.71216 33.8708 3.71216C32.1689 3.71216 30.5368 4.38824 29.3333 5.59166C28.5605 4.8026 27.5972 4.22638 26.5364 3.91874C25.4757 3.6111 24.3535 3.58247 23.2784 3.83561C22.2034 4.08875 21.2118 4.61509 20.3998 5.3637C19.5878 6.11231 18.9827 7.05785 18.6432 8.10882C17.5814 7.53221 16.3784 7.26708 15.1726 7.34397C13.9668 7.42085 12.8072 7.83661 11.8273 8.54341C10.8473 9.25021 10.0869 10.2193 9.63336 11.3392C9.17986 12.4591 9.05177 13.6843 9.26383 14.8738C8.10931 15.155 7.0404 15.7125 6.14911 16.4984C5.25781 17.2842 4.57084 18.2749 4.14731 19.3851C3.72378 20.4954 3.57639 21.6919 3.71781 22.8717C3.85924 24.0515 4.28524 25.1793 4.95917 26.158C6.41483 28.27 8.08317 30.6387 7.7 33.1833C7.19767 36.1955 5.52567 38.0087 3.66667 40.3333Z" stroke="#0496FF" stroke-width="2" stroke-linecap="round" stroke-linejoin="round"/>
<path d="M3.66667 40.3334L31.1667 12.8334" stroke="#0496FF" stroke-width="2" stroke-linecap="round" stroke-linejoin="round"/>
</svg>
